<svg version="1" xmlns="http://www.w3.org/2000/svg" width="1333.333" height="1333.333" viewBox="0 0 1000.000000 1000.000000"><path d="M471.9.4c-.2.2-5.1.6-10.9 1-5.8.4-12.1.9-14 1.1-1.9.3-6 .7-9 1-7.1.8-10.6 1.3-21 3-4.7.8-10.3 1.7-12.5 2-2.2.3-4.6.8-5.4 1.1-.8.2-3 .7-4.9 1-5.3.9-29.5 6.9-39.7 9.9-4.9 1.5-11 3.3-13.5 4-8.6 2.4-32.9 11.7-49.5 18.8-10.7 4.6-45.6 22.7-57 29.6-26.6 16.2-54.1 36.4-76 56.1-7.9 7.1-34.4 33.9-41 41.4-18.9 21.8-35.2 44.1-51.2 70.1-8.7 14.2-23.4 43.3-30.7 60.7-6.6 15.7-19.4 53.7-21 62.2-.2 1.1-1.1 4.8-1.9 8.1-2 7.5-7.5 36.3-8.2 43-.3 2.7-.8 6.1-1 7.5-.3 1.4-.7 5.2-1 8.5-.4 3.3-.9 7.6-1.3 9.5-.3 1.9-.7 128.7-.9 281.8l-.4 278.3 72.3-.2c80.1-.1 82-.2 100.7-6.5 15.4-5.1 29.2-13 39.9-22.8 9.2-8.4 19.8-26.5 23.2-39.6l1.9-7.5-2.2-1.8c-1.2-1-4-3.2-6.2-5-11.1-8.9-26.6-23.5-36-33.8-10.8-11.8-12.5-13.9-20.4-24.3-7.9-10.3-15.3-21.3-22-32.5-4.5-7.5-18.1-35.5-18.1-37.3 0-.8-.4-1.8-.9-2.4-2.6-2.7-12.2-36.1-15-51.9-.6-3.3-1.3-7.1-1.6-8.5-.3-1.3-.7-5.2-1.1-8.6-.3-3.3-.8-7.4-1.1-9-.2-1.6-.6-69.4-.7-150.7l-.3-147.7h182.4l9.4-4.6c10.1-5 26.6-12.1 36.9-16.1 7.3-2.8 32.4-11.1 35.5-11.8 1.1-.2 3.6-.9 5.5-1.5 3.9-1.2 27.5-6.6 33-7.5 1.9-.3 6.9-1.2 11-2 4.1-.7 12.2-1.9 18-2.5 5.8-.6 11.9-1.3 13.5-1.5 18.4-2.3 71.1-2.3 84.6 0 1.3.2 5.2.6 8.6.9 7.5.7 10.6 1.1 25.3 3.6 15.3 2.6 16.9 2.9 21 4 1.9.5 4.6 1.1 6 1.4 4.3.7 22 5.6 32.5 8.8 18.9 5.9 43.2 15.6 59.8 23.9l9.8 4.9h182.6l-.3 147.7c-.1 81.3-.4 148.9-.7 150.3-.2 1.4-.8 5.6-1.2 9.5-.4 3.8-.8 7.2-1 7.5-.2.4-.6 2.8-1 5.4-.3 2.6-.9 6.6-1.5 8.9-.5 2.3-1.1 5.5-1.4 7-.3 1.5-1.2 5.4-2.2 8.5-.9 3.1-1.7 6.1-1.8 6.7-.7 3.2-5.1 15.9-8.7 25.2-4.9 12.7-16.2 35-24.4 48.3-4.9 7.9-22 31.4-25.9 35.6-.6.7-3.6 4-6.6 7.4-12.5 14.1-30.6 31.1-47.8 44.9-3 2.4-4.1 3.9-3.7 5.2.3.9.8 2.6 1 3.6 1.7 8.3 9.4 23.4 15.8 31.1 8.3 9.9 21.8 20.1 34.1 25.7 7.4 3.4 21.7 8.2 27 9 1.7.3 5.6 1 8.6 1.5s38.9.9 79.8.9l74.3.1-.4-278.2c-.2-153.1-.6-279.7-.9-281.3-.3-1.7-.9-5.9-1.3-9.5-1.6-15.5-4.8-35.8-7.6-48.5-1.2-5-2.2-9.7-2.4-10.5-7.4-34.4-27.1-84.2-47.6-121-11.5-20.6-41.5-63.6-50.9-73-.3-.3-3.6-4.1-7.4-8.5-18.3-21-48-48.6-71.5-66.2-11.8-9-39.5-27.8-44.7-30.5-1.6-.8-6.9-3.9-11.9-6.8-19.2-11.2-47.9-24.6-70.5-32.9-6.3-2.3-12.4-4.6-13.5-5.1-7.2-3.1-51.7-15.3-63-17.4-1.6-.3-7.9-1.4-14-2.5-6-1.1-13-2.2-15.5-2.5-5-.7-11.2-1.6-15-2.1-1.4-.2-6-.7-10.3-1-4.3-.4-8.8-.9-10-1.2-2.5-.6-69.2-1.5-69.8-.9z"/></svg>