<?xml version="1.0" standalone="no"?>
<!DOCTYPE svg PUBLIC "-//W3C//DTD SVG 20010904//EN"
 "http://www.w3.org/TR/2001/REC-SVG-20010904/DTD/svg10.dtd">
<svg version="1.0" xmlns="http://www.w3.org/2000/svg"
 width="700.000000pt" height="700.000000pt" viewBox="0 0 700.000000 700.000000"
 preserveAspectRatio="xMidYMid meet">
<metadata>
Created by potrace 1.11, written by Peter Selinger 2001-2013
</metadata>
<g transform="translate(0.000000,700.000000) scale(0.100000,-0.100000)"
fill="#000000" stroke="none">
<path d="M3215 6990 c-879 -78 -1648 -432 -2250 -1035 -178 -179 -349 -396
-481 -611 -217 -354 -371 -763 -439 -1167 -44 -265 -45 -293 -45 -2285 l0
-1893 533 3 c510 4 535 5 610 26 232 64 379 175 462 347 24 50 47 106 50 126
6 35 5 37 -72 101 -364 303 -627 704 -734 1121 -55 215 -52 150 -56 1320 l-4
1087 634 0 635 0 98 46 c380 177 744 269 1167 294 523 31 1037 -68 1521 -294
l98 -46 635 0 634 0 -4 -1087 c-4 -1184 -1 -1114 -62 -1339 -87 -319 -245
-602 -484 -869 -75 -83 -225 -223 -299 -278 -41 -30 -42 -34 -37 -72 18 -126
160 -304 302 -378 195 -102 238 -107 861 -107 l512 0 0 1893 c0 1991 -1 2019
-45 2284 -217 1294 -1209 2354 -2530 2703 -290 77 -536 109 -865 115 -135 2
-290 0 -345 -5z"/>
</g>
</svg>
